<svg id="Layer_1" xmlns="http://www.w3.org/2000/svg" viewBox="0 0 1616.6 299.2"><style>.st0{fill:#e7843a}.st1{fill:#3d3d3d}.st3{fill:#fff}</style><path class="st0" d="M329.6 114.9V82.8h104.2v32.1h-34.3v108.2H364V114.9h-34.4z"/><path class="st0" d="M431.6 153.2c0-97 143.9-97 143.9 0 0 97.2-143.9 97.2-143.9 0zm107.2 0c0-50.5-70.3-50.5-70.3 0 0 50.9 70.3 50.9 70.3 0zM671.7 85l23.8 74.5h.6l6.2-23.8 17.8-52.9h35.7v5.4l-48.7 136.3h-20.6L664 157h-.6L641 224.5h-19.8L571.9 88.3v-5.4h36.3l18 52.9 6.2 23.8h.6L656.4 85h15.3zM798.1 154.2v68.9H761V82.2h13l70.9 69.3V82.8h36.7v140.5h-12.8l-70.7-69.1zM1054.8 217.9v5.2h-40.1l-24-41.3h-18.6v41.3h-35.9V82.8h61.5c55.1.2 65.1 66.5 29.7 90.6l27.4 44.5zm-57.1-103c-8.4-.2-17.2 0-25.7 0v34.7h25.7c19.4 0 20.4-34.5 0-34.7z"/><path class="st0" d="M1052 153.2c0-97 143.9-97 143.9 0 0 97.2-143.9 97.2-143.9 0zm107.2 0c0-50.5-70.3-50.5-70.3 0 0 50.9 70.3 50.9 70.3 0zM1198.5 153.2c0-97 143.9-97 143.9 0 0 97.2-143.9 97.2-143.9 0zm107.2 0c0-50.5-70.3-50.5-70.3 0 0 50.9 70.3 50.9 70.3 0zM1477.4 82.4h12.8v140.7h-36.7v-62.5l-29.9 31.3h-4l-29.7-31.3v62.5h-36.7V82.4h13.2l54.9 60.9 56.1-60.9zM1578.8 181.2c0-9.8-11.6-11.4-25.7-12.2-30.5-2.2-50.5-12.6-50.9-43.1-1.2-60.5 107.8-60.5 107 0h-34.1c0-18.6-37.7-17-38.9-.4-.8 10.6 9.6 12.8 22.2 14.2 27.9 3 55.1 6.6 55.1 41.7 0 58.9-114.2 60.5-113.4-1.2h34.7c.2 17.9 44 17.5 44 1z"/><path class="st1" d="M243.5 90.8c-6.6-17.4-15.9-34.8-28.1-48.9-15.5-17.8-34.8-30.4-57.5-36.7-24.4-6.8-53.4-5.8-77.3 3.2C36 25.3 3.4 72.4.2 119.3c-2 30.2 9.7 66.1 31.8 87.7 24.8 24.3 89.9 92.2 89.9 92.2 5-7.9 89-86.9 89-86.9 56.7-57.9 32.6-121.5 32.6-121.5M123.3 212.2c-48.4-.8-87-40.6-86.3-89 .8-48.4 40.6-87 89-86.3 48.4.8 87 40.6 86.3 89-.8 48.4-40.6 87-89 86.3"/><path class="st1" d="M101 76.3v91c0 .3-6.1 2.2-6.8 2.6-2.1 1.2-4.3 3.9-3.5 6.6h29s3.2-1.4 3-6.7l-8.7-3.2-.7-93s1.1-8.8-9.4-7.6l-13.2.9s-.6 4.1 3.1 6.4l7.2 3z"/><path class="st1" d="M137.4 118.9l-22.1 19.3s20.7 35.7 34.3 39.4c0 0 10.1 3.9 12.9-4.4 0 0-20.5-11.1-35.9-35.5l21.9-18.9s4.4-2.5 6.4-3c0 0 2.5 0 3-6h-25.1s-3 .9-3 3.2l.2 3.5 7.4 2.4zM285.9 45.8h6v216h-6z"/><g opacity=".1"><path class="st3" d="M364.1 140h35.4v-24.9h34.3V83H329.6v32.1h34.5zM470.4 140c10-32.7 56.6-32.7 66.5 0h37.6c-11.9-79.2-130-79.2-141.9 0h37.8zM737.4 140l18.4-51.6V83h-35.6l-17.9 52.9-1 4.1zM689.2 140l-17.5-54.8h-15.3L639.2 140zM627.2 140l-1-4.1L608.1 83h-36.2v5.4l18.6 51.6zM833 140l-58.9-57.6H761V140zM845 83h36.7v57H845z"/><g><path class="st3" d="M972.1 140v-24.9c8.4 0 17.2-.2 25.7 0 13.3.1 17.5 14.7 13.5 24.9h36.4c3.7-26.9-12.9-56.8-49.9-57h-61.5v57h35.8zM1090.8 140c10-32.7 56.6-32.7 66.5 0h37.6c-11.9-79.2-130-79.2-141.9 0h37.8zM1237.3 140c10-32.7 56.6-32.7 66.5 0h37.6c-11.9-79.2-130-79.2-141.9 0h37.8zM1418.3 140l-51.7-57.4h-13.2V140zM1490.3 140V82.6h-12.9l-52.6 57.4zM1559.2 140c-.2 0-.4 0-.6-.1-12.6-1.4-23-3.6-22.2-14.2 1.2-16.6 38.9-18.2 38.9.4h34.1c.8-60.5-108.2-60.5-107 0 .1 5.2.7 9.8 1.9 13.9h54.9z"/></g><path class="st3" d="M39.5 140c-1.1-5.7-1.6-11.6-1.5-17.7.8-48.4 40.6-87 89-86.3 48.4.8 87 40.6 86.3 89-.1 5.1-.6 10.1-1.5 14.9h36.7c4-28.9-4-50-4-50-6.6-17.4-15.9-34.8-28.1-48.9-15.5-17.8-34.8-30.4-57.5-36.7-24.4-6.8-53.4-5.8-77.3 3.2-44.6 16.9-77.2 64-80.4 111-.4 6.9-.2 14.2.8 21.5h37.5z"/><path class="st3" d="M94.6 72.4l7.4 3V140h12.7l-.5-67.3s1.1-8.8-9.4-7.6l-13.3.9s-.6 4.1 3.1 6.4zM117.8 140h11.7c-.7-1-1.4-2-2-3.1l21.9-18.9s4.4-2.5 6.4-3c0 0 2.5 0 3-6h-25.1s-3 .9-3 3.2l.2 3.5 7.4 2.3-22.1 19.3c.1.1.6 1 1.6 2.7zM286.9 44.9h6v95h-6z"/></g></svg>